<mxfile host="app.diagrams.net" agent="Mozilla/5.0 (Windows NT 10.0; Win64; x64) AppleWebKit/537.36 (KHTML, like Gecko) Chrome/134.0.0.0 Safari/537.36" version="26.2.9">
  <diagram name="Page-1" id="eMKyfUuXtEWbFmcIX-S9">
    <mxGraphModel dx="1780" dy="632" grid="1" gridSize="10" guides="1" tooltips="1" connect="1" arrows="1" fold="1" page="1" pageScale="1" pageWidth="850" pageHeight="1100" math="0" shadow="0">
      <root>
        <mxCell id="0" />
        <mxCell id="1" parent="0" />
        <mxCell id="V4qpen_-_6Bv_9mfWIA8-1" value="PO" style="shape=hexagon;perimeter=hexagonPerimeter2;whiteSpace=wrap;html=1;fixedSize=1;strokeWidth=1;" vertex="1" parent="1">
          <mxGeometry x="120" y="20" width="120" height="60" as="geometry" />
        </mxCell>
        <mxCell id="V4qpen_-_6Bv_9mfWIA8-2" value="Planning Produksi" style="shape=hexagon;perimeter=hexagonPerimeter2;whiteSpace=wrap;html=1;fixedSize=1;" vertex="1" parent="1">
          <mxGeometry x="120" y="120" width="120" height="60" as="geometry" />
        </mxCell>
        <mxCell id="V4qpen_-_6Bv_9mfWIA8-3" value="Permintaan Bahan Baku &amp; Kemasan" style="strokeWidth=1;html=1;shape=mxgraph.flowchart.document2;whiteSpace=wrap;size=0.25;" vertex="1" parent="1">
          <mxGeometry x="120" y="220" width="120" height="62" as="geometry" />
        </mxCell>
        <mxCell id="V4qpen_-_6Bv_9mfWIA8-4" value="Bon Bahan Baku &amp; Kemasan" style="strokeWidth=1;html=1;shape=mxgraph.flowchart.document2;whiteSpace=wrap;size=0.25;" vertex="1" parent="1">
          <mxGeometry x="-37" y="221" width="120" height="60" as="geometry" />
        </mxCell>
        <mxCell id="V4qpen_-_6Bv_9mfWIA8-5" value="Penyimpanan Bahan Baku &amp; Kemasan" style="shape=process;whiteSpace=wrap;html=1;backgroundOutline=1;" vertex="1" parent="1">
          <mxGeometry x="120" y="310" width="120" height="60" as="geometry" />
        </mxCell>
        <mxCell id="V4qpen_-_6Bv_9mfWIA8-6" value="Kartu Stok" style="shape=card;whiteSpace=wrap;html=1;" vertex="1" parent="1">
          <mxGeometry x="280" y="310" width="120" height="60" as="geometry" />
        </mxCell>
        <mxCell id="V4qpen_-_6Bv_9mfWIA8-7" value="Bahan Baku (Tepung)" style="ellipse;whiteSpace=wrap;html=1;" vertex="1" parent="1">
          <mxGeometry x="-37" y="410" width="120" height="60" as="geometry" />
        </mxCell>
        <mxCell id="V4qpen_-_6Bv_9mfWIA8-8" value="Pengayakan Tepung" style="whiteSpace=wrap;strokeWidth=1;" vertex="1" parent="1">
          <mxGeometry x="120" y="410" width="120" height="60" as="geometry" />
        </mxCell>
        <mxCell id="V4qpen_-_6Bv_9mfWIA8-9" value="Proses Produksi" style="whiteSpace=wrap;strokeWidth=1;" vertex="1" parent="1">
          <mxGeometry x="120" y="510" width="120" height="60" as="geometry" />
        </mxCell>
        <mxCell id="V4qpen_-_6Bv_9mfWIA8-10" value="Bahan Pembantu (Formula)" style="ellipse;whiteSpace=wrap;html=1;" vertex="1" parent="1">
          <mxGeometry x="280" y="510" width="120" height="60" as="geometry" />
        </mxCell>
        <mxCell id="V4qpen_-_6Bv_9mfWIA8-11" value="Penimbangan" style="whiteSpace=wrap;strokeWidth=1;" vertex="1" parent="1">
          <mxGeometry x="280" y="610" width="120" height="60" as="geometry" />
        </mxCell>
        <mxCell id="V4qpen_-_6Bv_9mfWIA8-12" value="Mixing" style="whiteSpace=wrap;strokeWidth=1;" vertex="1" parent="1">
          <mxGeometry x="120" y="610" width="120" height="60" as="geometry" />
        </mxCell>
        <mxCell id="V4qpen_-_6Bv_9mfWIA8-13" value="Refiner Dough" style="whiteSpace=wrap;strokeWidth=1;" vertex="1" parent="1">
          <mxGeometry x="120" y="710" width="120" height="60" as="geometry" />
        </mxCell>
        <mxCell id="V4qpen_-_6Bv_9mfWIA8-14" value="Pemotongan dan Pembulatan (DDR)" style="whiteSpace=wrap;strokeWidth=1;" vertex="1" parent="1">
          <mxGeometry x="120" y="820" width="120" height="60" as="geometry" />
        </mxCell>
        <mxCell id="V4qpen_-_6Bv_9mfWIA8-15" value="Peletakan &amp; Penekanan&#xa;(Panning Dough)" style="whiteSpace=wrap;strokeWidth=1;" vertex="1" parent="1">
          <mxGeometry x="120" y="920" width="120" height="60" as="geometry" />
        </mxCell>
        <mxCell id="V4qpen_-_6Bv_9mfWIA8-16" value="Spray Air &amp; Penaburan Wijen, Oat / Spray Glaze" style="whiteSpace=wrap;strokeWidth=1;" vertex="1" parent="1">
          <mxGeometry x="280" y="1020" width="120" height="60" as="geometry" />
        </mxCell>
        <mxCell id="V4qpen_-_6Bv_9mfWIA8-17" value="Fermentasi (Proofing)" style="whiteSpace=wrap;strokeWidth=1;" vertex="1" parent="1">
          <mxGeometry x="120" y="1020" width="120" height="60" as="geometry" />
        </mxCell>
        <mxCell id="V4qpen_-_6Bv_9mfWIA8-18" value="Pemanggangan Baking" style="whiteSpace=wrap;strokeWidth=1;" vertex="1" parent="1">
          <mxGeometry x="120" y="1120" width="120" height="60" as="geometry" />
        </mxCell>
        <mxCell id="V4qpen_-_6Bv_9mfWIA8-19" value="Pendinginan Cooling" style="whiteSpace=wrap;strokeWidth=1;" vertex="1" parent="1">
          <mxGeometry x="120" y="1214" width="120" height="60" as="geometry" />
        </mxCell>
        <mxCell id="V4qpen_-_6Bv_9mfWIA8-20" value="Pemotongan Slicing" style="whiteSpace=wrap;strokeWidth=1;" vertex="1" parent="1">
          <mxGeometry x="120" y="1318" width="120" height="60" as="geometry" />
        </mxCell>
        <mxCell id="V4qpen_-_6Bv_9mfWIA8-21" value="Sortir Produk Jadi" style="rhombus;strokeWidth=1;whiteSpace=wrap;" vertex="1" parent="1">
          <mxGeometry x="120" y="1420" width="120" height="120" as="geometry" />
        </mxCell>
        <mxCell id="V4qpen_-_6Bv_9mfWIA8-22" value="Pengemasan dan Pelabelan" style="whiteSpace=wrap;strokeWidth=1;" vertex="1" parent="1">
          <mxGeometry x="120" y="1580" width="120" height="60" as="geometry" />
        </mxCell>
        <mxCell id="V4qpen_-_6Bv_9mfWIA8-23" value="Reject Jual Karyawan" style="whiteSpace=wrap;strokeWidth=1;" vertex="1" parent="1">
          <mxGeometry x="280" y="1450" width="120" height="60" as="geometry" />
        </mxCell>
        <mxCell id="V4qpen_-_6Bv_9mfWIA8-24" value="Pendeteksian&#xa;Logam Metal Detector" style="rhombus;strokeWidth=1;whiteSpace=wrap;" vertex="1" parent="1">
          <mxGeometry x="105" y="1670" width="150" height="150" as="geometry" />
        </mxCell>
        <mxCell id="V4qpen_-_6Bv_9mfWIA8-25" value="Produk Jadi Finishing Goods" style="whiteSpace=wrap;strokeWidth=1;" vertex="1" parent="1">
          <mxGeometry x="450" y="1480" width="120" height="60" as="geometry" />
        </mxCell>
        <mxCell id="V4qpen_-_6Bv_9mfWIA8-26" value="Reject (Dimusnahkan)" style="whiteSpace=wrap;strokeWidth=1;" vertex="1" parent="1">
          <mxGeometry x="530" y="1710" width="120" height="60" as="geometry" />
        </mxCell>
        <mxCell id="V4qpen_-_6Bv_9mfWIA8-27" value="Kemasan Karton dan Tray" style="whiteSpace=wrap;strokeWidth=1;" vertex="1" parent="1">
          <mxGeometry x="410" y="1580" width="120" height="60" as="geometry" />
        </mxCell>
        <mxCell id="V4qpen_-_6Bv_9mfWIA8-28" value="Distribusi" style="whiteSpace=wrap;strokeWidth=1;" vertex="1" parent="1">
          <mxGeometry x="460" y="1820" width="120" height="60" as="geometry" />
        </mxCell>
        <mxCell id="V4qpen_-_6Bv_9mfWIA8-60" value="Kartu Stok" style="shape=card;whiteSpace=wrap;html=1;" vertex="1" parent="1">
          <mxGeometry x="280" y="410" width="120" height="60" as="geometry" />
        </mxCell>
        <mxCell id="V4qpen_-_6Bv_9mfWIA8-62" value="Penimbangan" style="whiteSpace=wrap;strokeWidth=1;" vertex="1" parent="1">
          <mxGeometry x="-37" y="610" width="120" height="60" as="geometry" />
        </mxCell>
      </root>
    </mxGraphModel>
  </diagram>
</mxfile>
